<svg width="24" height="24" viewBox="0 0 24 24" fill="none" xmlns="http://www.w3.org/2000/svg">
<path fill-rule="evenodd" clip-rule="evenodd" d="M5.77778 8C5.28645 8 5 8.35829 5 8.66667V20.3333C5 20.6417 5.28645 21 5.77778 21H18.2222C18.7136 21 19 20.6417 19 20.3333V8.66667C19 8.35829 18.7136 8 18.2222 8H5.77778ZM3 8.66667C3 7.13409 4.30543 6 5.77778 6H18.2222C19.6946 6 21 7.13409 21 8.66667V20.3333C21 21.8659 19.6946 23 18.2222 23H5.77778C4.30543 23 3 21.8659 3 20.3333V8.66667Z" fill="#AE385B"/>
<path fill-rule="evenodd" clip-rule="evenodd" d="M8 18C8 17.4477 8.44772 17 9 17H15C15.5523 17 16 17.4477 16 18C16 18.5523 15.5523 19 15 19H9C8.44772 19 8 18.5523 8 18Z" fill="#AE385B"/>
<path fill-rule="evenodd" clip-rule="evenodd" d="M12 2.5C12.2761 2.5 12.5 2.72386 12.5 3L12.5 7C12.5 7.27614 12.2761 7.5 12 7.5C11.7239 7.5 11.5 7.27614 11.5 7L11.5 3C11.5 2.72386 11.7239 2.5 12 2.5Z" fill="#AE385B"/>
<path fill-rule="evenodd" clip-rule="evenodd" d="M2 13V16H3V13H2ZM0.240138 11.6482C0.396592 11.3875 0.752026 11 1.33333 11H3.66667C4.24797 11 4.60341 11.3875 4.75986 11.6482C4.92826 11.9289 5 12.2521 5 12.5556V16.4444C5 16.7479 4.92826 17.0711 4.75986 17.3518C4.60341 17.6125 4.24797 18 3.66667 18H1.33333C0.752026 18 0.396592 17.6125 0.240138 17.3518C0.0717416 17.0711 0 16.7479 0 16.4444V12.5556C0 12.2521 0.0717416 11.9289 0.240138 11.6482Z" fill="#AE385B"/>
<path fill-rule="evenodd" clip-rule="evenodd" d="M21 13V16H22V13H21ZM19.2401 11.6482C19.3966 11.3875 19.752 11 20.3333 11H22.6667C23.248 11 23.6034 11.3875 23.7599 11.6482C23.9283 11.9289 24 12.2521 24 12.5556V16.4444C24 16.7479 23.9283 17.0711 23.7599 17.3518C23.6034 17.6125 23.248 18 22.6667 18H20.3333C19.752 18 19.3966 17.6125 19.2401 17.3518C19.0717 17.0711 19 16.7479 19 16.4444V12.5556C19 12.2521 19.0717 11.9289 19.2401 11.6482Z" fill="#AE385B"/>
<path d="M10 12.5C10 13.3284 9.32843 14 8.5 14C7.67157 14 7 13.3284 7 12.5C7 11.6716 7.67157 11 8.5 11C9.32843 11 10 11.6716 10 12.5Z" fill="#AE385B"/>
<path d="M17 12.5C17 13.3284 16.3284 14 15.5 14C14.6716 14 14 13.3284 14 12.5C14 11.6716 14.6716 11 15.5 11C16.3284 11 17 11.6716 17 12.5Z" fill="#AE385B"/>
<path d="M14 3C14 4.10457 13.1046 5 12 5C10.8954 5 10 4.10457 10 3C10 1.89543 10.8954 1 12 1C13.1046 1 14 1.89543 14 3Z" fill="#AE385B"/>
</svg>
