<svg width="24" height="24" viewBox="0 0 24 24" fill="none" xmlns="http://www.w3.org/2000/svg">
<path d="M20.53 2.06C18.94 1.35 17.03 1 14.79 1C12.55 1 10.64 1.35 9.05 2.06C7.46 2.77 6.67 3.62 6.67 4.61V6.25C5.46 6.42 4.35 6.7 3.38 7.13C1.79 7.84 1 8.69 1 9.68V18.7C1 19.71 1.79 20.56 3.36 21.26C4.93 21.96 6.85 22.31 9.12 22.31C11.39 22.31 13.31 21.96 14.88 21.26C16.45 20.56 17.24 19.71 17.24 18.7V17.06C18.47 16.9 19.59 16.62 20.55 16.19C22.12 15.49 22.91 14.64 22.91 13.63V4.61C22.91 3.62 22.12 2.77 20.53 2.06ZM15.44 18.68C15.36 18.91 15.12 19.13 14.72 19.35C14.31 19.57 13.81 19.76 13.21 19.94C12.61 20.11 11.95 20.25 11.24 20.36C10.53 20.47 9.82 20.52 9.13 20.52C8.44 20.52 7.73 20.47 7.01 20.36C6.29 20.25 5.63 20.12 5.03 19.94C4.43 19.77 3.93 19.58 3.53 19.36C3.13 19.14 2.89 18.93 2.82 18.71V16.48C3.2 16.69 3.62 16.88 4.08 17.04C4.55 17.21 5.05 17.34 5.58 17.46C6.11 17.57 6.68 17.66 7.28 17.72C7.88 17.78 8.5 17.81 9.13 17.81C9.76 17.81 10.37 17.78 10.96 17.72C11.55 17.66 12.11 17.57 12.64 17.46C13.17 17.35 13.68 17.21 14.15 17.04C14.62 16.87 15.06 16.69 15.45 16.48V18.69L15.44 18.68ZM15.44 14.67C15.05 14.88 14.62 15.07 14.14 15.23C13.67 15.4 13.16 15.53 12.63 15.65C12.1 15.76 11.54 15.85 10.95 15.91C10.36 15.97 9.75 16 9.12 16C8.49 16 7.87 15.97 7.27 15.91C6.67 15.85 6.1 15.76 5.57 15.65C5.04 15.54 4.54 15.4 4.07 15.23C3.6 15.06 3.18 14.88 2.81 14.67V11.96C3.19 12.17 3.61 12.36 4.07 12.52C4.54 12.69 5.04 12.82 5.57 12.94C6.1 13.05 6.67 13.14 7.27 13.2C7.87 13.26 8.49 13.29 9.12 13.29C9.75 13.29 10.36 13.26 10.95 13.2C11.54 13.14 12.1 13.05 12.63 12.94C13.16 12.83 13.67 12.69 14.14 12.52C14.61 12.35 15.05 12.17 15.44 11.96V14.67ZM13.16 10.94C11.81 11.32 10.46 11.52 9.12 11.52C7.78 11.52 6.41 11.33 5.09 10.96C3.77 10.58 3.01 10.17 2.8 9.72C3.01 9.27 3.77 8.85 5.09 8.47C6.41 8.09 7.75 7.89 9.12 7.89C10.49 7.89 11.82 8.09 13.17 8.48C14.52 8.87 15.27 9.28 15.44 9.72C15.27 10.16 14.52 10.57 13.16 10.95V10.94ZM21.11 13.62C21.03 13.85 20.79 14.07 20.39 14.29C19.99 14.51 19.48 14.7 18.88 14.88C18.38 15.02 17.83 15.14 17.25 15.24V12.57C17.61 12.52 17.97 12.48 18.31 12.41C18.84 12.3 19.35 12.16 19.82 11.99C20.29 11.82 20.73 11.64 21.12 11.43V13.64L21.11 13.62ZM21.11 9.61C20.72 9.82 20.29 10.01 19.81 10.17C19.33 10.33 18.83 10.47 18.3 10.59C17.96 10.66 17.6 10.71 17.24 10.75V9.69C17.24 9.13 16.98 8.62 16.47 8.15C16.52 8.15 16.57 8.15 16.61 8.15C17.2 8.09 17.76 8 18.29 7.89C18.82 7.78 19.33 7.64 19.8 7.47C20.27 7.3 20.71 7.12 21.1 6.91V9.62L21.11 9.61ZM18.83 5.88C17.48 6.26 16.13 6.46 14.79 6.46C13.45 6.46 12.08 6.27 10.76 5.9C9.44 5.52 8.68 5.11 8.47 4.66C8.68 4.21 9.44 3.79 10.76 3.41C12.08 3.03 13.42 2.83 14.79 2.83C16.16 2.83 17.49 3.03 18.84 3.42C20.19 3.81 20.94 4.22 21.11 4.66C20.94 5.1 20.19 5.51 18.83 5.89V5.88Z" fill="#AE385B"/>
</svg>
