<?xml version="1.0" encoding="utf-8"?>
<!-- Generator: Adobe Illustrator 27.9.0, SVG Export Plug-In . SVG Version: 6.00 Build 0)  -->
<svg version="1.1" xmlns="http://www.w3.org/2000/svg" xmlns:xlink="http://www.w3.org/1999/xlink" x="0px" y="0px"
	 viewBox="0 0 1522.02 481.89" style="enable-background:new 0 0 1522.02 481.89;" xml:space="preserve">
<style type="text/css">
	.st0{fill:#FFFFFF;}
	.st1{fill:#56C5D0;}
	.st2{fill:#FBB040;}
	.st3{fill:none;stroke:#FBB040;stroke-miterlimit:10;}
	.st4{fill:none;stroke:#FBB040;stroke-width:80;stroke-linecap:round;stroke-linejoin:round;stroke-miterlimit:10;}
	.st5{fill:none;stroke:#FBB040;stroke-width:40;stroke-miterlimit:10;}
	.st6{fill:#FBB042;}
	.st7{fill:none;stroke:#ED5845;stroke-width:4;stroke-miterlimit:10;}
	.st8{fill:none;stroke:#212120;stroke-width:2;stroke-miterlimit:10;}
	.st9{fill:#212120;}
	.st10{fill:none;stroke:#212120;stroke-width:2.9605;stroke-miterlimit:10;}
	.st11{fill:#CB4B3C;}
	.st12{fill:#282829;}
	.st13{fill:#EE4C9B;}
	.st14{fill:#00ABD6;}
	.st15{fill:#99DBF7;}
	.st16{fill:#383838;}
	.st17{fill:#F58020;}
	.st18{fill:#DCE46C;}
	.st19{fill:#FDDB40;}
	.st20{fill:#AE385B;}
	.st21{fill:#414042;}
	.st22{fill:none;stroke:#00A79D;stroke-miterlimit:10;}
	.st23{fill:none;stroke:#00A79D;stroke-width:1.4142;stroke-miterlimit:10;}
	.st24{fill:none;stroke:#DA1C5C;stroke-miterlimit:10;}
	.st25{fill:none;stroke:#00A79D;stroke-width:0.7071;stroke-miterlimit:10;}
	.st26{fill:none;stroke:#F7941D;stroke-miterlimit:10;}
	.st27{display:none;}
	.st28{display:inline;fill:none;stroke:#BE1E2D;stroke-width:0.9069;stroke-miterlimit:10;}
</style>
<g id="Layer_1">
</g>
<g id="Layer_4">
</g>
<g id="Layer_5">
	<g>
		<path class="st0" d="M663.75,234.47c-5.16-10.58-12.47-18.77-21.93-24.58c-9.47-5.81-20.92-8.71-34.37-8.71
			c-12.93,0-24.51,2.48-34.76,7.44c-10.25,4.96-18.31,11.85-24.19,20.66c-5.88,8.81-8.81,19.03-8.81,30.65
			c0,11.88,3.07,22.29,9.2,31.24c6.13,8.94,14.52,15.9,25.16,20.86c10.64,4.96,22.75,7.44,36.33,7.44c11.36,0,21.96-1.4,31.82-4.21
			c9.86-2.81,18.63-6.82,26.34-12.04v-25.46c-6.66,3.92-14.07,6.95-22.23,9.11c-8.16,2.15-16.35,3.23-24.58,3.23
			c-9.01,0-16.62-1.3-22.81-3.92c-6.2-2.61-10.9-6.36-14.1-11.26c-0.63-0.97-1.18-1.99-1.69-3.04h88.35
			C671.49,257.52,668.91,245.05,663.75,234.47z M593.35,232.91c4.18-2.35,9.2-3.52,15.08-3.52c5.35,0,9.95,1.05,13.81,3.13
			c3.85,2.09,6.95,5.13,9.3,9.11c1.1,1.86,1.99,3.92,2.69,6.17h-52.89c0.56-1.83,1.3-3.57,2.22-5.19
			C585.91,238.49,589.17,235.26,593.35,232.91z"/>
		<path class="st0" d="M797.6,251.02c-7.44-2.94-17.63-4.8-30.55-5.58l-26.05-1.96c-6.27-0.52-10.54-1.44-12.83-2.74
			c-2.29-1.3-3.43-3.07-3.43-5.29c0-2.87,1.86-5.09,5.58-6.66c3.72-1.57,9.17-2.35,16.35-2.35c6.14,0,11.16,0.65,15.08,1.96
			c3.92,1.31,6.98,2.97,9.2,4.99c2.22,2.03,3.65,4.28,4.31,6.76h40.54c-0.91-7.83-4.31-14.65-10.18-20.46
			c-5.88-5.81-13.71-10.35-23.5-13.61c-9.79-3.26-20.95-4.9-33.49-4.9c-12.67,0-23.73,1.4-33.19,4.21
			c-9.47,2.81-16.84,6.99-22.13,12.53c-5.29,5.55-7.93,12.57-7.93,21.05c0,6.27,1.69,11.85,5.09,16.74
			c3.39,4.9,8.98,8.88,16.74,11.95c7.77,3.07,18.24,5.06,31.43,5.97l19.78,1.57c7.57,0.65,12.93,1.6,16.06,2.84
			c3.13,1.24,4.7,3.1,4.7,5.58c0,3.13-2.06,5.48-6.17,7.05c-4.11,1.57-10.15,2.35-18.11,2.35c-6.14,0-11.43-0.55-15.86-1.66
			c-4.44-1.11-8-2.74-10.67-4.9c-2.68-2.15-4.47-4.73-5.39-7.74h-40.54c0.39,8.1,3.52,15.21,9.4,21.35
			c5.88,6.14,14.07,10.9,24.58,14.3c10.51,3.39,22.75,5.09,36.72,5.09c13.58,0,25.2-1.5,34.86-4.5c9.66-3,17.1-7.44,22.33-13.32
			c5.22-5.88,7.83-13.12,7.83-21.74c0-6.66-1.57-12.4-4.7-17.23C810.33,257.85,805.05,253.96,797.6,251.02z"/>
		<polygon class="st0" points="968.17,204.51 926.07,204.51 875.15,267.19 875.15,165.54 835.01,165.54 835.01,316.33 
			870.84,316.33 903.89,278.37 926.07,316.33 971.11,316.33 929.5,248.95 		"/>
		<path class="st0" d="M1017.62,160.06c-4.24-3.53-9.96-5.29-17.14-5.29c-6.92,0-12.53,1.76-16.84,5.29
			c-4.31,3.52-6.46,8.29-6.46,14.3c0,5.88,2.15,10.54,6.46,14c4.31,3.46,9.92,5.19,16.84,5.19c7.18,0,12.89-1.73,17.14-5.19
			c4.24-3.46,6.36-8.13,6.36-14C1023.99,168.35,1021.86,163.58,1017.62,160.06z"/>
		<polygon class="st0" points="980.51,202.75 980.51,316.33 1020.66,316.33 1020.66,202.75 1000.68,206.67 		"/>
		<path class="st0" d="M1153.24,207.64c-7.57-4.31-16.71-6.46-27.42-6.46c-9.01,0-17.23,2.09-24.68,6.27
			c-7.44,4.18-13.71,10.35-18.8,18.51c-0.39,0.62-0.74,1.27-1.11,1.91l-3.79-23.35h-40.15l7.44,38.58v73.24h39.95v-53.85
			c0-5.88,1.11-10.97,3.33-15.28c2.22-4.31,5.39-7.64,9.5-9.99c4.11-2.35,8.91-3.53,14.39-3.53c7.96,0,14.07,2.22,18.31,6.66
			c4.24,4.44,6.36,10.84,6.36,19.19v56.79h39.95v-62.67c0-10.7-1.99-19.98-5.97-27.81C1166.58,218.02,1160.81,211.95,1153.24,207.64
			z"/>
		<path class="st0" d="M1312.94,208.62c-8.29-4.96-17.92-7.44-28.89-7.44c-10.45,0-19.88,2.45-28.3,7.34
			c-7.33,4.26-13.5,10.01-18.51,17.25v-60.23h-40.15v150.79h40.15V294.8c5,7.28,11.13,13.06,18.41,17.32
			c8.35,4.9,17.82,7.34,28.4,7.34c10.97,0,20.59-2.45,28.89-7.34c8.29-4.9,14.75-11.81,19.39-20.76c4.63-8.94,6.95-19.22,6.95-30.84
			c0-11.88-2.32-22.26-6.95-31.14C1327.69,220.51,1321.23,213.59,1312.94,208.62z M1295.51,275.21c-2.29,4.31-5.45,7.67-9.5,10.09
			c-4.05,2.42-8.75,3.62-14.1,3.62c-5.35,0-10.45-1.21-15.28-3.62c-4.83-2.41-9.08-5.78-12.73-10.09c-3.66-4.31-6.46-9.2-8.42-14.69
			c1.96-5.61,4.76-10.58,8.42-14.88c3.65-4.31,7.9-7.7,12.73-10.18c4.83-2.48,9.92-3.72,15.28-3.72c5.35,0,10.05,1.24,14.1,3.72
			c4.05,2.48,7.21,5.88,9.5,10.18c2.28,4.31,3.43,9.27,3.43,14.88C1298.93,266,1297.79,270.9,1295.51,275.21z"/>
		<path class="st0" d="M1485.76,229.38c-6.01-8.88-14.39-15.8-25.17-20.76c-10.77-4.96-23.27-7.44-37.5-7.44
			c-14.36,0-26.9,2.48-37.6,7.44c-10.71,4.96-19.06,11.88-25.07,20.76c-6.01,8.88-9.01,19.26-9.01,31.14c0,11.62,3,21.9,9.01,30.84
			c6,8.94,14.36,15.86,25.07,20.76c10.7,4.9,23.24,7.34,37.6,7.34c14.23,0,26.73-2.45,37.5-7.34s19.16-11.81,25.17-20.76
			c6-8.94,9.01-19.29,9.01-31.04S1491.76,238.26,1485.76,229.38z M1450.51,276.28c-2.48,4.38-6.04,7.74-10.67,10.09
			c-4.64,2.35-10.22,3.53-16.74,3.53c-6.53,0-12.14-1.18-16.84-3.53c-4.7-2.35-8.29-5.74-10.77-10.18
			c-2.48-4.44-3.72-9.72-3.72-15.86c0-6.14,1.24-11.39,3.72-15.76c2.48-4.37,6.07-7.74,10.77-10.09c4.7-2.35,10.31-3.53,16.84-3.53
			c6.53,0,12.11,1.18,16.74,3.53c4.63,2.35,8.19,5.71,10.67,10.09c2.48,4.38,3.72,9.69,3.72,15.96
			C1454.23,266.66,1452.99,271.91,1450.51,276.28z"/>
		<path class="st0" d="M457.19,214.32c-5.12,29.92-56.58,82.54-187.2,53.42C165.55,244.45,87.16,218.7,67.81,211.48
			c-18.55-6.92-8.93-34.5,14.04-27.36c45.99,14.3,169.52,53.85,240.72,53.85c132.61,0,123.68-98.8,105.54-124.51
			c-4.14-5.87-9.3-10.1-9.3,1.21c0,66.6-86.28,75.12-183.03,70.72c-40.31-1.83-109.24-15.23-148.87-29.14
			c-18.96-6.66-13.97-34.61,11.14-27.35c37.69,10.89,98.79,20.99,142.97,20.99c162.38,0,162.38-135.31,0-135.31
			c-40.55,0-77.44,10.4-111.53,29.33c-9.6,5.33-5.34,12.42,3,7.71c39.79-22.46,147.37-15.4,147.37,32.73
			c0,33.17-62.97,48.45-164.3,19.78c-29.25-8.28-48.89-11.16-65.85,15.74c-22.12,35.08-35.07,76.55-35.07,121.09
			c0,4.77,0.9,35.19,7.12,56.56c20.9,71.73,34.01-70.27,199.44-3.79c206.51,82.99,254.79-3.66,244.78-78.15
			C464.67,205.66,459.44,201.16,457.19,214.32z"/>
		<path class="st0" d="M426.57,356.78c-80.95,36.72-170.19-14.93-259.54-48.24c-10.92,19.2-74.48,18.92-74.48,68.4
			c0,50.97,67.45,90.37,148.48,90.37c78.85,0,148.29-40.32,188.82-101.46C442.89,346.19,437.19,351.96,426.57,356.78z"/>
	</g>
</g>
<g id="Layer_3">
</g>
<g id="Layer_2" class="st27">
</g>
</svg>
