<?xml version="1.0" encoding="utf-8"?>
<!-- Generator: Adobe Illustrator 27.9.0, SVG Export Plug-In . SVG Version: 6.00 Build 0)  -->
<svg version="1.1" xmlns="http://www.w3.org/2000/svg" xmlns:xlink="http://www.w3.org/1999/xlink" x="0px" y="0px"
	 viewBox="0 0 481.89 481.89" style="enable-background:new 0 0 481.89 481.89;" xml:space="preserve">
<style type="text/css">
	.st0{fill:#FFFFFF;}
	.st1{fill:#56C5D0;}
	.st2{fill:#FBB040;}
	.st3{fill:none;stroke:#FBB040;stroke-miterlimit:10;}
	.st4{fill:none;stroke:#FBB040;stroke-width:80;stroke-linecap:round;stroke-linejoin:round;stroke-miterlimit:10;}
	.st5{fill:none;stroke:#FBB040;stroke-width:40;stroke-miterlimit:10;}
	.st6{fill:#FBB042;}
	.st7{fill:none;stroke:#ED5845;stroke-width:4;stroke-miterlimit:10;}
	.st8{fill:none;stroke:#212120;stroke-width:2;stroke-miterlimit:10;}
	.st9{fill:#212120;}
	.st10{fill:none;stroke:#212120;stroke-width:2.9605;stroke-miterlimit:10;}
	.st11{fill:#CB4B3C;}
	.st12{fill:#282829;}
	.st13{fill:#EE4C9B;}
	.st14{fill:#00ABD6;}
	.st15{fill:#99DBF7;}
	.st16{fill:#383838;}
	.st17{fill:#F58020;}
	.st18{fill:#DCE46C;}
	.st19{fill:#FDDB40;}
	.st20{fill:#AE385B;}
	.st21{fill:#414042;}
	.st22{fill:none;stroke:#00A79D;stroke-miterlimit:10;}
	.st23{fill:none;stroke:#00A79D;stroke-width:1.4142;stroke-miterlimit:10;}
	.st24{fill:none;stroke:#DA1C5C;stroke-miterlimit:10;}
	.st25{fill:none;stroke:#00A79D;stroke-width:0.7071;stroke-miterlimit:10;}
	.st26{fill:none;stroke:#F7941D;stroke-miterlimit:10;}
	.st27{display:none;}
	.st28{display:inline;fill:none;stroke:#BE1E2D;stroke-width:0.9069;stroke-miterlimit:10;}
</style>
<g id="Layer_1">
</g>
<g id="Layer_4">
</g>
<g id="Layer_5">
	<g>
		<path class="st21" d="M466,215.56c-1.33-9.89-6.56-14.4-8.81-1.24c-5.12,29.92-56.58,82.54-187.2,53.42
			C165.55,244.45,87.16,218.7,67.81,211.48c-18.55-6.92-8.93-34.5,14.04-27.36c45.99,14.3,169.52,53.85,240.72,53.85
			c132.61,0,123.68-98.8,105.54-124.51c-4.14-5.87-9.3-10.1-9.3,1.21c0,66.6-86.28,75.12-183.03,70.72
			c-40.31-1.83-109.24-15.23-148.87-29.14c-18.96-6.66-13.97-34.61,11.14-27.35c37.69,10.89,98.79,20.99,142.97,20.99
			c162.38,0,162.38-135.31,0-135.31c-40.55,0-77.44,10.4-111.53,29.33c-9.6,5.33-5.34,12.42,3,7.71
			c39.79-22.46,147.37-15.4,147.37,32.73c0,33.17-62.97,48.45-164.3,19.78c-29.25-8.28-48.89-11.16-65.85,15.74
			c-22.12,35.08-35.07,76.55-35.07,121.09c0,4.77,0.9,35.19,7.12,56.56c20.9,71.73,34.01-70.27,199.44-3.79
			C427.73,376.69,476.01,290.05,466,215.56z"/>
		<path class="st21" d="M167.03,308.54c-10.92,19.2-74.48,18.92-74.48,68.4c0,50.97,67.45,90.37,148.48,90.37
			c78.85,0,148.29-40.32,188.82-101.46c13.04-19.67,7.34-13.9-3.28-9.08C345.62,393.5,256.38,341.85,167.03,308.54z"/>
	</g>
</g>
<g id="Layer_3">
</g>
<g id="Layer_2" class="st27">
</g>
</svg>
